<?xml version="1.0" encoding="UTF-8" standalone="no"?>
<!-- Generator: Adobe Illustrator 26.2.1, SVG Export Plug-In . SVG Version: 6.00 Build 0)  -->

<svg
   version="1.1"
   id="Calque_2"
   x="0px"
   y="0px"
   viewBox="0 0 526.99021 129.08008"
   xml:space="preserve"
   sodipodi:docname="404-logo-path-union-in-inkscape.svg"
   width="526.99023"
   height="129.08008"
   inkscape:version="1.1.1 (3bf5ae0d25, 2021-09-20)"
   xmlns:inkscape="http://www.inkscape.org/namespaces/inkscape"
   xmlns:sodipodi="http://sodipodi.sourceforge.net/DTD/sodipodi-0.dtd"
   xmlns="http://www.w3.org/2000/svg"
   xmlns:svg="http://www.w3.org/2000/svg"><defs
   id="defs43">
	

	

		
		
		
		
		
		
	
		
		
		
		
		
		
	</defs><sodipodi:namedview
   id="namedview41"
   pagecolor="#ffffff"
   bordercolor="#666666"
   borderopacity="1.0"
   inkscape:pageshadow="2"
   inkscape:pageopacity="0.0"
   inkscape:pagecheckerboard="0"
   showgrid="false"
   fit-margin-top="0"
   fit-margin-left="0"
   fit-margin-right="0"
   fit-margin-bottom="0"
   inkscape:zoom="8"
   inkscape:cx="168.8125"
   inkscape:cy="60.9375"
   inkscape:window-width="3072"
   inkscape:window-height="1664"
   inkscape:window-x="0"
   inkscape:window-y="0"
   inkscape:window-maximized="1"
   inkscape:current-layer="Calque_2" />
<polygon
   points=""
   id="polygon2"
   transform="translate(-38.759766,-36.150391)" /><polygon
   points=""
   id="polygon4"
   transform="translate(-38.759766,-36.150391)" /><polygon
   points=""
   id="polygon6"
   transform="translate(-38.759766,-36.150391)" /><path
   id="path8"
   d="m 203.32031,0 c -1.1011,9.450497 -9.05628,25.882493 -14.46484,38.134766 -0.43915,-0.0033 -0.8731,-0.01563 -1.31445,-0.01563 h -0.0117 -0.01 c -26.87,0 -53.02883,6.110234 -77.29883,12.740234 -24.139972,-16.53 -44.730935,-24.570313 -62.960934,-24.570313 -16.75,0 -29.309845,3.341407 -37.3398441,9.941407 C 3.4311809,41.560499 0,49.039141 0,57.869141 0,67.92914 3.2110156,75.999609 9.5410156,81.849609 17.015496,88.766738 28.685645,92.281314 44.205078,92.314453 c 0.01554,0.0049 0.0328,0.0059 0.05078,0.0059 h 0.25 0.25586 c 0.02697,0 0.05154,-0.0051 0.07227,-0.01562 2.396061,-0.01933 4.611197,-0.155745 6.617188,-0.425782 10.290002,-1.33 18.178203,-5.669609 22.158203,-12.349609 3.27,-5.49 3.571562,-11.948827 0.851563,-17.798828 h 0.0098 c 3.33,-0.81 7.000469,-1.760469 11.480469,-2.980469 0,-0.01 0.0098,-0.0098 0.0098,-0.0098 0.03,-0.01 0.0694,-0.02125 0.109374,-0.03125 0.370002,-0.1 0.749141,-0.198593 1.119141,-0.308593 h 0.01172 c 0.01,-0.01 0.0193,-0.01172 0.0293,-0.01172 0.01,0 0.0098,-0.0098 0.0098,-0.0098 0.01,-0.01 0.0193,-0.0098 0.0293,-0.0098 3.44,-0.94 6.94086,-1.919219 10.63086,-2.949219 2.120004,-0.599999 4.268944,-1.210547 6.458994,-1.810547 1.87998,-0.53 3.77164,-1.050311 5.68164,-1.570313 12.28,8.450002 23.94867,17.969688 33.38867,25.679688 -3.24001,7.16 -3.45008,15.101406 -0.58009,21.941406 l -0.01,0.0098 c -1.76,0.670003 -3.52882,1.349303 -5.29883,2.029303 -8.66999,3.31 -17.64039,6.74952 -25.40039,9.51953 -8.82997,-3.88 -16.669688,-7.08008 -23.179687,-7.08008 -12.810001,0 -18.550782,3.62094 -18.550782,7.21094 0,3.59 5.81961,7.43944 18.59961,7.43944 3.52,0 10.859568,-2.03037 23.099619,-6.40039 0.92999,0.42002 1.89156,0.84149 2.85156,1.27149 15.26,6.76001 34.24875,15.18945 56.96874,15.18945 14.03,0 25.82008,-3.91055 34.08008,-11.31055 7.33001,-6.56 14,-15.35 14,-24.749993 -0.003,-5.36181 -1.42807,-10.84566 -4.30079,-15.80664 0.25598,-0.003 0.51591,-0.01367 0.77149,-0.01367 3.52001,0 7.12984,0.261406 11.58984,0.691406 0.26,0 0.42969,-0.169687 0.42969,-0.429687 0,-0.26 -0.16969,-0.341641 -0.42969,-0.431641 -2.75,-0.77 -7.30078,-5.369141 -7.30078,-8.11914 V 54.599609 l 12.44532,0.02734 c 2.41608,12.163516 9.54265,20.972656 23.18555,20.972656 13.72266,0 20.84976,-8.856979 23.2246,-21.107421 0.53458,0.441073 1.29692,0.58789 2.125,0.58789 l 25.49023,-0.259766 h 0.01 v 14.009766 c 0,2.74 -4.54883,7.349141 -7.29883,8.119141 -0.26,0.09 -0.43164,0.169687 -0.43164,0.429687 0,0.26 0.17164,0.431641 0.43164,0.431641 2.54607,-0.24062 4.75442,-0.422626 6.83594,-0.541016 -2.90378,4.94589 -4.33601,10.40896 -4.32617,15.75 0,9.400003 6.80906,18.190003 14.28906,24.750003 8.44,7.4 20.47102,11.31055 34.79102,11.31055 23.19,0 42.57843,-8.43141 58.14844,-15.19141 0.99,-0.43 1.96015,-0.84953 2.91016,-1.26953 12.5,4.37 19.99007,6.40039 23.58008,6.40039 13.04,0 18.98047,-3.84945 18.98047,-7.43945 0,-3.59 -5.85946,-7.21094 -18.93946,-7.21094 -6.65,0 -14.65015,3.20008 -23.66015,7.08008 -7.93,-2.77 -17.07968,-6.20953 -25.92969,-9.51953 -1.80999,-0.68 -3.61016,-1.3593 -5.41016,-2.029303 l -0.01,-0.01172 c 2.93,-6.84 2.72015,-14.779453 -0.58985,-21.939453 9.64,-7.71 21.55008,-17.229688 34.08008,-25.679688 1.95,0.52 3.87883,1.040313 5.79883,1.570313 2.23,0.6 4.42984,1.210547 6.58984,1.810547 3.77,1.03 7.33961,2.009218 10.84961,2.949218 0.01,0 0.0212,-4.72e-4 0.0312,0.0098 0,0 -10e-4,0.0098 0.01,0.0098 0.01,0 0.0193,-4.79e-4 0.0293,0.0098 h 0.01 c 0.38,0.11 0.76063,0.210547 1.14063,0.310547 0.04,0.01 0.0794,0.0193 0.10937,0.0293 0,0 0.01,0.0017 0.01,0.01172 4.56999,1.22 8.32069,2.168515 11.7207,2.978515 h 0.01 c -2.78,5.850005 -2.47868,12.310782 0.86131,17.800782 4.05001,6.68 12.10938,11.019609 22.60938,12.349609 1.97686,0.261095 4.17719,0.383309 6.52734,0.410156 0.2713,0.02732 0.29561,0.01831 0.44141,0.02734 0.0114,5e-5 0.0199,0.0019 0.0312,0.002 v -0.002 h 0.0117 0.0195 0.0117 0.0293 0.0117 0.0293 v 0.002 c 0.0427,0.0013 0.0909,-0.0014 0.12891,-0.002 l 0.0586,-0.002 c 0.0143,-4.85e-4 0.20635,-4.99e-4 0.21875,-0.0059 15.77227,-0.05208 27.64111,-3.56081 35.2539,-10.458984 6.46001,-5.85 9.74023,-13.920469 9.74023,-23.980469 0,-8.83 -3.50085,-16.310625 -10.13085,-21.640625 -8.19,-6.6 -21.01937,-9.939453 -38.10938,-9.939453 -18.61,0 -39.61977,8.040313 -64.25977,24.570313 C 389.73298,44.459697 363.03219,38.34962 335.60219,38.34962 h -0.01 -0.0117 v 1.089844 l 0.0117,-1.019531 v 1.019531 c 26.98001,0 53.27117,5.950938 77.70117,12.460938 -12.2,8.29 -23.75992,17.518828 -33.16992,25.048828 l -0.0117,0.0098 c -2.93424,-5.719285 -11.48866,-17.453646 -32.37305,-17.726562 -0.49565,-0.03018 -0.42756,-0.01307 -0.63866,-0.01953 v -0.0039 h -0.0195 v 0.0039 h -0.0195 v -0.0039 h -0.0195 c 9.9e-4,0.0086 -0.014,0.0028 -0.0195,0.0039 v -0.0039 h -0.0293 -2.73047 c -12.27315,0.0043 -21.66749,3.217977 -28.42969,8.148438 V 54.75 l 13.19922,0.0293 c -0.34,-2.75 -6.2082,-7.249688 -6.1582,-10.679688 0.17,-0.35 -0.2615,-0.769765 -0.77149,-0.259765 -1.64,1.63 -3.77953,3.008984 -6.26953,4.208984 l 0.20117,-7.480469 c 6.28085,-0.750307 12.78016,-1.128906 19.53907,-1.128906 v -1.089844 h -0.0117 c -6.74267,0 -13.22934,0.372522 -19.5,1.113282 l 0.6289,-23.414063 c -1.64,4.55 -8.99851,10.900625 -10.97851,12.140625 l -0.10157,12.888672 c -8.35386,1.614675 -16.32679,3.954551 -24.01172,7.035156 6.88656,-10.546853 32.48992,-24.450922 34.83204,-37.623047 L 298.38086,0.15039062 C 297.0092,11.923131 284.92512,34.654726 280.50586,46.435547 c 0.0256,-0.729751 0.0449,-1.462863 0.0449,-2.205078 0,-17.24 -6.82,-31.281016 -24.25,-31.291016 -17.32,0 -24.05078,14.03922 -24.05078,31.199219 0,0.249254 0.007,0.496189 0.01,0.74414 -3.70002,-1.220928 -7.47034,-2.277151 -11.32422,-3.164062 l 0.69531,-25.818359 c -1.63999,4.55 -9.00047,10.898671 -10.98047,12.138671 l -0.0918,11.722657 c -4.75178,-0.707199 -9.63182,-1.183484 -14.65429,-1.431641 10.12854,-8.700389 23.78481,-18.530756 25.46679,-27.990234 z m 53.26953,13.810547 c 10.6,-10e-7 10.61133,19.678517 10.61133,29.728515 0,10.05 -0.19062,31.201407 -10.89062,31.191407 -10.32,0 -9.14063,-20.801797 -9.14063,-30.591797 0,-10.049999 -1.18008,-30.328125 9.41992,-30.328125 z M 47.279297,27.378906 c 17.809998,0 37.970047,7.811563 61.580083,23.851563 -3.84002,1.06 -7.60001,2.108906 -11.250005,3.128906 -4.12,1.16 -8.008359,2.251016 -11.818359,3.291016 -0.01,0 -0.03078,0.0095 -0.05078,0.01953 h -0.0098 l -0.210938,0.06055 -0.08984,0.0293 c -0.05,0.02 -0.0887,0.0293 -0.138672,0.0293 -0.04,0.02 -0.0909,0.02102 -0.13086,0.04102 h -0.0098 c -0.02,0.01 -0.05031,0.01953 -0.07031,0.01953 h -0.01953 c -4.31,1.16 -7.85961,2.079141 -11.099609,2.869141 -3.930003,-7.4 -12.070314,-12.188359 -22.320313,-13.318359 -1.39968,-0.160774 -2.90458,-0.238064 -4.560547,-0.226563 -1.655967,0.0115 -2.69799,0.0894 -3.609375,0.275391 -5.4,0.96 -10.121094,4.19125 -10.121094,9.03125 0,4.16 4.180707,9.038359 15.970703,9.068359 h 0.0098 v -0.0039 c 0.01711,0.0072 0.03077,0 0.05078,0 v 0.0039 h 0.0098 0.0098 c 4.62,0 10.029767,-0.628749 16.759765,-1.96875 1.5,-0.3 3.070938,-0.63 4.710938,-1 0.75,2.280001 1.128906,4.740313 1.128906,7.320313 0,4.15 -1.010078,10.05914 -5.830078,14.61914 -3.62,3.43 -8.769141,5.549375 -15.369141,6.359375 -1.917075,0.233553 -3.925967,0.345462 -5.08789,0.347656 -0.0085,-0.0013 -1.203125,0.002 -1.203125,0.002 v -0.0098 H 44.5 v 0.0098 h -0.01953 v -0.0098 h -0.04102 c -13.01,0 -22.749219,-3.369531 -28.949219,-10.019531 -5.26,-5.63 -7.9296861,-13.47984 -7.9296871,-23.339844 0,-8.11 3.2088281,-15.500547 9.0488281,-20.810547 6.95,-6.33 17.549923,-9.669922 30.669922,-9.669922 z m 431.460933,0.230469 c 13.38,0 24.21079,3.339922 31.30079,9.669922 5.95,5.31 9.22851,12.700547 9.22851,20.810547 0,9.859996 -2.72961,17.709844 -8.09961,23.339844 -6.33,6.65 -16.26906,10.019531 -29.53906,10.019531 h -0.0605 c 0.004,0.01388 -0.0125,0.005 -0.0195,0.0078 -0.11195,-0.0036 -0.23864,0 -0.35547,0 -2.10465,-0.0075 -4.15113,-0.115468 -6.0957,-0.347656 -6.74001,-0.81 -11.99945,-2.929375 -15.68945,-6.359375 -4.92,-4.56 -5.94922,-10.471094 -5.94922,-14.621094 0,-2.58 0.38841,-5.038357 1.14844,-7.318359 1.68,0.37 3.28054,0.7 4.81054,1 6.66288,1.301496 12.02486,1.906243 16.6543,1.941406 0.016,0.01078 0.0358,0.01758 0.0566,0.01758 h 0.23242 c 0.0478,1.28e-4 0.10866,0.0098 0.15625,0.0098 v -0.0098 h 0.0176 v 0.0098 h 0.0195 v -0.0098 h 0.002 v 0.0098 h 0.0195 0.0117 v -0.0098 h 0.0195 v 0.0098 h 0.0117 0.01 v -0.0098 h 0.01 v 0.0098 h 0.01 c 12.02,-0.03 16.28906,-4.910313 16.28906,-9.070313 0,-4.84 -4.80836,-8.069296 -10.31836,-9.029296 -1.31066,-0.203041 -2.65847,-0.278695 -3.78125,-0.294922 -1.60415,0.01011 -3.12962,0.08437 -4.54882,0.24414 -10.46,1.13 -18.77125,5.920313 -22.78125,13.320313 -3.31,-0.79 -6.93008,-1.709141 -11.33008,-2.869141 h -0.0195 c -0.02,0 -0.0403,-0.0095 -0.0703,-0.01953 h -0.01 c -0.05,-0.02 -0.10063,-0.02102 -0.14063,-0.04102 -0.05,0 -0.0887,-0.0093 -0.13867,-0.0293 l -0.0898,-0.03125 c -0.07,-0.02 -0.15071,-0.03859 -0.22071,-0.05859 h -0.01 c -0.02,-0.01 -0.0408,-0.02148 -0.0508,-0.02148 -3.89,-1.04 -7.8586,-2.129062 -12.0586,-3.289062 -3.72,-1.02 -7.56041,-2.07086 -11.48047,-3.13086 24.10001,-16.04 44.66961,-23.849609 62.84961,-23.849609 z M 187.5293,39.208984 c 0.28523,0 0.56532,0.0084 0.84961,0.0098 -2.36147,5.397806 -4.20619,9.971614 -4.51953,12.451172 -0.35,2.660001 1.11007,3.259763 2.83007,3.259766 l 25.49024,-0.259766 h 0.01 v 14.009766 c 0,0.72306 -0.32282,1.576488 -0.83984,2.455078 -6.67447,-7.13324 -17.29679,-12.148958 -32.33008,-12.154297 l -2.84674,0.0049 -0.19245,0.0049 h -0.0293 c -20.7,0.15 -29.15101,11.990235 -32.04101,17.740235 l -0.01,-0.01172 c -9.22,-7.53 -20.55,-16.758828 -32.5,-25.048828 23.94,-6.51 49.69891,-12.460938 76.12891,-12.460938 z m 7.17773,0.154297 c 5.44559,0.231217 10.71922,0.734347 15.84375,1.503907 l -0.0801,10.113281 c -7.81,2.06 -15.36953,3.009765 -23.51953,3.009765 -1.89,0 -2.49062,-0.769921 -1.89062,-2.919922 0.94092,-3.486536 4.79145,-7.452404 9.64648,-11.707031 z m 110.89258,2.835938 -0.0703,8.929687 c -7.81,2.06 -15.36953,3.009766 -23.51953,3.009766 -1.31988,0 -1.99563,-0.388861 -2.08789,-1.347656 0.0843,-0.544433 0.15969,-1.094556 0.22656,-1.650391 0.13678,-0.485819 0.34078,-0.982661 0.58398,-1.486328 7.94342,-3.279186 16.19627,-5.763229 24.86719,-7.455078 z m -84.69336,0.638672 c 1.86479,0.432616 3.7119,0.899106 5.53906,1.410156 -1.55005,1.389431 -3.47593,2.592173 -5.67578,3.652344 z m 6.97656,1.828125 c 1.47746,0.432249 2.94407,0.890639 4.39844,1.375 0.0635,2.116758 0.23544,4.179702 0.52148,6.167968 -1.63735,-2.337567 -4.44534,-5.138185 -4.91992,-7.542968 z M 47.126953,48.238281 c 0.242344,0.0012 0.602891,0.01145 0.962891,0.02148 h 0.01953 c 11.29,0.33 19.190625,5.009298 22.390625,13.279296 -8.83,1.990001 -15.549609,2.910157 -21.099609,2.910157 v 0.002 c -0.0033,-3.28e-4 -0.0064,1.44e-4 -0.0098,0 -0.0025,-1.1e-4 -0.0052,0 -0.0078,0 h -0.0625 v -0.002 c -5.17,-0.01 -8.729843,-1.010235 -10.589843,-2.990235 -1.19,-1.27 -1.72086,-2.969218 -1.63086,-5.199218 0.21,-5.26 3.421485,-7.959532 9.521485,-8.019532 h 0.0098 z m 432.107427,0.228516 c 0.003,6.27e-4 0.004,0.002 0.006,0.002 0.01,0 0.01,-0.01 0.0195,0 0.0238,-0.0012 0.0553,0 0.0703,0 h 0.0293 0.0215 0.01 c 6.23001,0.06 9.49873,2.761484 9.71876,8.021484 0.08,2.23 -0.44993,3.929219 -1.66993,5.199219 -1.88779,1.967274 -5.4889,2.962715 -11.11523,2.962891 -5.62633,1.76e-4 -12.41416,-0.914914 -21.33399,-2.882813 3.26,-8.27 11.31961,-12.949297 22.84961,-13.279297 h 0.0195 c 0.40624,-0.01391 0.80265,-0.01572 1.15039,-0.02148 0.0715,-0.0054 0.15056,-0.0013 0.22461,-0.002 z M 176.57227,60.066406 c 6.6e-4,3e-6 0.001,-3e-6 0.002,0 11.03843,0.04746 20.09306,3.449176 26.1582,9.882813 1.64535,1.74044 3.03022,3.704776 4.20313,5.816406 -0.72317,0.4916 -1.42866,0.861193 -2.04297,1.033203 -0.26,0.09 -0.42969,0.171641 -0.42969,0.431641 0,0.26 0.16969,0.429687 0.42969,0.429687 1.02278,-0.0967 1.97781,-0.181305 2.9082,-0.259765 2.32315,4.8616 3.45392,10.487111 3.23047,16.488281 -0.34,9.089998 -3.75867,17.361488 -9.63867,23.271488 -6.89,6.92 -17.05992,10.58984 -29.41992,10.58984 -22.5,0 -41.38102,-8.37961 -56.54102,-15.09961 -0.61,-0.26 -1.19906,-0.53102 -1.78906,-0.79101 7.52,-2.71001 16.05984,-5.97063 24.33984,-9.14063 1.8,-0.68 3.58891,-1.36859 5.37891,-2.05859 4.35,9.24 13.77164,14.52906 25.93164,14.53906 h 0.0293 2.64062 c 1.78,0 2.41016,-1.03016 2.41016,-1.91016 0,-1.06 -0.8411,-1.91015 -1.8711,-1.91015 -1.53,0 -1.97,1.07125 -2.25,1.78125 -0.29,0.71 -0.41968,0.93945 -0.92968,0.93945 h -0.0293 c -10.67,-0.01 -18.11024,-5.44032 -20.99024,-15.320313 6.01,-2.28 10.71,-4.01875 14.75,-5.46875 9.93,7.389993 16.44009,10.699223 21.08008,10.699223 0.01,0 0.0293,0.01 0.0293,0 0.45,0 0.89055,-0.01 1.31055,-0.0195 4.59,-0.15999 8.44917,-1.14132 11.19922,-2.86132 2.72998,-1.700009 4.24023,-4.038363 4.24023,-6.568363 0,-5.87 -7.23086,-8.941406 -14.38086,-8.941406 -3.54,0 -10.94859,2.060703 -23.30859,6.470703 -4.74,-3.55 -10.04008,-7.850703 -15.08008,-11.970703 4.01,-16.419999 17.36015,-19.969063 27.91015,-20.039063 0.006,-0.0057 0.008,-0.003 0.0137,-0.0059 h 0.45507 c 0.018,0 0.0352,-0.0029 0.0508,-0.0078 z m 170.22265,0.226563 c 0.006,-2.3e-5 0.0116,2.1e-5 0.0176,0 0.24117,-0.0011 0.21246,0.01376 0.49805,0.01758 10.77,0.07 24.39047,3.619062 28.48047,20.039062 -5.15,4.12 -10.55063,8.420706 -15.39063,11.970703 -12.62,-4.409998 -20.18101,-6.470703 -23.79101,-6.470703 -7.29001,0 -14.66993,3.069457 -14.66993,8.939453 0,2.530001 1.53032,4.870276 4.32032,6.570316 2.81,1.71997 6.7514,2.69937 11.4414,2.85937 0.43,0.01 0.87985,0.0215 1.33985,0.0215 0,0.01 0.0193,0 0.0293,0 4.73,0 11.36977,-3.31117 21.50977,-10.701166 4.12,1.450002 8.92079,3.190704 15.05078,5.470704 -2.94,9.880002 -10.52992,15.310312 -21.41992,15.320312 h -0.0312 c -0.52,0 -0.65922,-0.23141 -0.94922,-0.94141 -0.29,-0.71 -0.74078,-1.77932 -2.30078,-1.77929 -1.06,0 -1.91016,0.85015 -1.91016,1.91015 0,0.88 0.64094,1.91016 2.46094,1.91016 h 2.69922 0.0312 c 12.41,-0.01 22.01898,-5.30102 26.45898,-14.54102 1.83,0.69 3.66024,1.38055 5.49024,2.06055 8.44,3.17 17.16984,6.43062 24.83984,9.14062 -0.6,0.26 -1.21008,0.52907 -1.83008,0.78907 -15.48,6.72 -34.73898,15.10156 -57.70898,15.10156 -12.61,0 -22.99149,-3.6718 -30.02149,-10.5918 -6,-5.91 -9.48984,-14.17953 -9.83984,-23.269527 -0.23005,-6.17823 1.01839,-11.950488 3.53516,-16.908203 2.4426,0.1089 5.02327,0.312989 7.99609,0.599609 0.26,0 0.42969,-0.171641 0.42969,-0.431641 0,-0.26 -0.16969,-0.339687 -0.42969,-0.429687 -1.58647,-0.44421 -3.75296,-2.169266 -5.31836,-4.072266 0.70492,-0.94086 1.45031,-1.849109 2.26758,-2.697265 6.19842,-6.437591 15.43834,-9.843343 26.71484,-9.886719 z M 147.81055,81.298828 c 4.73,3.86 9.64914,7.850703 14.11914,11.220703 -3.87,1.4 -8.36024,3.059219 -13.99024,5.199219 -0.91,-3.62 -1.17877,-7.708906 -0.79883,-11.878906 0.14,-1.56 0.36993,-3.091016 0.66993,-4.541016 z m 228.31054,0.240234 c 0.3,1.450002 0.53969,2.981016 0.67969,4.541016 0.38,4.16 0.0997,8.248906 -0.82031,11.878906 -5.75,-2.14 -10.3293,-3.799218 -14.2793,-5.199218 4.57,-3.37 9.59992,-7.360703 14.41992,-11.220704 z M 186.4707,86.71875 c 6.64,-0.01 10.05969,4.210625 10.42969,8.140625 0.17,1.84 -0.31945,3.419453 -1.43945,4.689453 -1.96,2.189992 -5.87029,3.351092 -11.32032,3.371092 h -0.0195 -0.0312 -0.0293 c -4.3,0 -10.44961,-3.111014 -19.84961,-10.041014 11.82,-4.21 18.90976,-6.160156 22.25976,-6.160156 z m 150.17969,0.230469 c 3.42,0 10.6507,1.950156 22.7207,6.160156 -9.6,6.929995 -15.87177,10.041015 -20.26171,10.041015 h -0.0293 -0.0293 -0.0215 c -5.56,-0.02 -9.54883,-1.1811 -11.54883,-3.371093 -1.15,-1.27 -1.6507,-2.849453 -1.4707,-4.689453 0.38,-3.92 3.87062,-8.150625 10.64062,-8.140625 z M 88.951172,105.23047 c 6.05,0 13.409448,2.89953 21.689448,6.51953 C 99.180662,115.8 92.28,117.69922 89,117.69922 c -11.71,-0.01 -13.119687,-4.44961 -13.179688,-6.34961 -0.04,-1.19 0.349922,-2.22961 1.169922,-3.09961 1.88,-1.98 6.010938,-3.01953 11.960938,-3.01953 z m 347.228518,0.22851 c 6.07,0 10.29098,1.04149 12.21093,3.02149 0.84,0.87 1.23922,1.90961 1.19922,3.09961 -0.06,1.91 -1.49898,6.33961 -13.45898,6.34961 -3.34999,0 -10.38984,-1.89922 -22.08984,-5.94922 8.46,-3.62 15.95867,-6.52149 22.13867,-6.52149 z"
   sodipodi:nodetypes="ccscscscsccscsccccccccccsccccccccccsssccscccscscsccsccccscsccccsccsssccccccccccscccccccccccccccccccccsccscscscccccccccccccccccccccccccccccsccccccccscsccccccccsscsssccccccccccscccscsccccccsccscccccccccscscsscscscccccscccscccccccccccccccccccsscccccsccccccccccsscccccsccccccccsccccccccsccccccccccccccccccssccccccccscscssccsccccccccccsscccsccccscssscssccscccssccccscsccccsscccsccsssssscsccccsccccscccsccccccccccccccccsccccscccccccccccssccccsccccsccccs" /><polygon
   points=""
   id="polygon10"
   transform="translate(-38.759766,-36.150391)" />
<polygon
   points=""
   id="polygon18"
   transform="translate(-38.759766,-36.150391)" /><polygon
   points=""
   id="polygon20"
   transform="translate(-38.759766,-36.150391)" /><polygon
   points=""
   id="polygon22"
   transform="translate(-38.759766,-36.150391)" /><polygon
   points=""
   id="polygon26"
   transform="translate(-38.759766,-36.150391)" />



</svg>
