<?xml version="1.0" encoding="utf-8"?>
<!-- Generator: Adobe Illustrator 26.2.1, SVG Export Plug-In . SVG Version: 6.00 Build 0)  -->
<svg version="1.1" id="Calque_2" xmlns="http://www.w3.org/2000/svg" xmlns:xlink="http://www.w3.org/1999/xlink" x="0px" y="0px"
	 viewBox="0 0 595.28 841.89" style="enable-background:new 0 0 595.28 841.89;" xml:space="preserve">
<g>
	<g>
		<polygon points="385.92,95.36 385.92,95.36 385.92,95.36 		"/>
		<polygon points="385.94,95.36 385.94,95.36 385.94,95.36 		"/>
		<polygon points="386.04,95.36 386.04,95.36 386.04,95.36 		"/>
		<path d="M383.02,95.36c0.01,0,2.72,0,2.73,0h0.03l-0.01,0.55c0.01,0,0.01,0,0.02,0l0-0.55v0.25v0.3h0.01l0-0.55h0.02l-0.01,0.55
			c0.01,0,0.01,0,0.02,0l0.01-0.55v0.02v-0.02l0,0.22l-0.01,0.33c0.01,0,0.01,0,0.01,0v-0.55h0.02l-0.01,0.55c0,0,0.01,0,0.01,0
			l0.01-0.55v0.02v-0.02v0.23l0,0.32c0,0,0.01,0,0.01,0l0.01-0.54h0.01l-0.01,0.54c0.01,0,0.01,0,0.01,0l0.01-0.54v0.05v-0.05v0.14
			l0,0.4c0,0,0,0,0.01,0l0-0.54h0.01l-0.01,0.54c0,0,0,0,0.01,0l0-0.54h0.02l-0.01,0.54c0,0,0.01,0,0.01,0l0.01-0.54h0.01
			l-0.01,0.54h0.01l0-0.54h0.02l-0.02,0.54c0.01,0,0.01,0,0.01,0l0.01-0.54h0.01l-0.01,0.55c0,0,0,0,0.01,0v-0.55h0.02l-0.01,0.55
			c0,0,0.01,0,0.01,0l0-0.55h0.03l-0.02,0.55c0.01,0,0.01,0,0.02,0l0-0.55h0l-0.01,0.55c0,0,0,0,0,0l0-0.55h0.03l-0.01,0.55
			c0.01,0,0.01,0,0.01,0l0.01-0.55l0,0l-0.01,0.55l0,0l0.01-0.55c0.01,0,0.02,0,0.03,0c0.01,0,0.02,0,0.03,0c0.01,0,0.02,0,0.03,0
			c21.13,0.15,29.75,11.99,32.7,17.74l0.01-0.01c9.41-7.53,20.97-16.76,33.17-25.05c-24.43-6.51-50.72-12.46-77.7-12.46v-1.02
			l-0.01,1.02V74.5h0.01c0,0,0,0,0.01,0c27.43,0,54.13,6.11,78.89,12.74c24.64-16.53,45.65-24.57,64.26-24.57
			c17.09,0,29.92,3.34,38.11,9.94c6.63,5.33,10.13,12.81,10.13,21.64c0,10.06-3.28,18.13-9.74,23.98
			c-7.67,6.95-19.65,10.47-35.6,10.47h-0.06v-0.54l0,0.54v-0.55l0,0v0.01l-0.02,0.54v-0.02l-0.01,0.02l0.01-0.55
			c-0.01,0-0.01,0-0.01,0l-0.01,0.55l0-0.55l0,0v0.01l-0.03,0.54v-0.54l-0.01,0.54v-0.55l0,0v0.01l-0.02,0.54l0-0.55h0l-0.01,0.55
			l0,0c-2.55-0.01-4.88-0.16-7-0.44c-10.5-1.33-18.56-5.67-22.61-12.35c-3.34-5.49-3.64-11.95-0.86-17.8h-0.01l0,0
			c-3.4-0.81-7.15-1.76-11.72-2.98c0-0.01-0.01-0.01-0.01-0.01c-0.03-0.01-0.07-0.02-0.11-0.03c-0.38-0.1-0.76-0.2-1.14-0.31
			c0,0-0.01,0-0.01,0c-0.01-0.01-0.02-0.01-0.03-0.01c-0.01,0-0.01-0.01-0.01-0.01c-0.01-0.01-0.02-0.01-0.03-0.01
			c-3.51-0.94-7.08-1.92-10.85-2.95c-2.16-0.6-4.36-1.21-6.59-1.81c-1.92-0.53-3.85-1.05-5.8-1.57
			c-12.53,8.45-24.44,17.97-34.08,25.68l0,0c3.31,7.16,3.52,15.1,0.59,21.94l0.01,0.01c1.8,0.67,3.6,1.35,5.41,2.03
			c8.85,3.31,18,6.75,25.93,9.52c9.01-3.88,17.01-7.08,23.66-7.08c13.08,0,18.94,3.62,18.94,7.21c0,3.59-5.94,7.44-18.98,7.44
			c-3.59,0-11.08-2.03-23.58-6.4c-0.95,0.42-1.92,0.84-2.91,1.27c-15.57,6.76-34.96,15.19-58.15,15.19
			c-14.32,0-26.35-3.91-34.79-11.31c-7.48-6.56-14.29-15.35-14.29-24.75C341.19,112.89,354.28,95.37,383.02,95.36z M386.01,95.36
			L386,95.91h0L386.01,95.36z M386.06,95.91l-0.01,0.53v-0.01v0.01L386.06,95.91c-0.01,0-0.01,0-0.01,0l-0.02,0.53l0-0.53
			c0,0,0,0,0,0l-0.01,0.53l0.01-0.53c-0.01,0-0.01,0-0.02,0L386,96.44l0-0.53h0l-0.01,0.53l0.01-0.53c-0.01,0-0.01,0-0.01,0
			l-0.02,0.53l0-0.53c0,0,0,0-0.01,0l-0.01,0.53l0-0.53c0,0,0-0.01-0.01-0.01l-0.01,0.54v-0.54h-0.01l-0.01,0.54l0-0.54
			c0,0-0.01,0-0.01,0l-0.01,0.54v-0.54c-0.01,0-0.01,0-0.01,0l-0.01,0.54l0.01-0.54c-0.01,0-0.01,0-0.01,0l-0.01,0.54l0.01-0.54
			c-0.01,0-0.01,0-0.01,0l-0.02,0.54l0-0.54c0,0,0,0-0.01,0l-0.01,0.54l0-0.54c0,0-0.01,0-0.01,0l-0.01,0.54l0-0.54
			c0,0-0.01,0-0.01,0l-0.01,0.54l0.01-0.54c-0.01,0-0.01,0-0.02,0l-0.01,0.54v-0.54h-0.01l-0.01,0.54l0-0.54c-0.01,0-0.01,0-0.02,0
			l-0.01,0.54c-0.01,0-0.03,0-0.04,0c-11.33,0.02-20.61,3.43-26.83,9.89c-5.82,6.04-8.83,14.54-8.48,23.94
			c0.35,9.09,3.84,17.36,9.84,23.27c7.03,6.92,17.41,10.59,30.02,10.59c22.97,0,42.23-8.38,57.71-15.1
			c0.62-0.26,1.23-0.53,1.83-0.79c-7.67-2.71-16.4-5.97-24.84-9.14c-1.83-0.68-3.66-1.37-5.49-2.06
			c-4.44,9.24-14.05,14.53-26.46,14.54c-0.01,0-0.02,0-0.03,0h-2.7c-1.82,0-2.46-1.03-2.46-1.91c0-1.06,0.85-1.91,1.91-1.91
			c1.56,0,2.01,1.07,2.3,1.78c0.29,0.71,0.43,0.94,0.95,0.94c0.01,0,0.02,0,0.03,0c10.89-0.01,18.48-5.44,21.42-15.32
			c-6.13-2.28-10.93-4.02-15.05-5.47c-10.14,7.39-16.78,10.7-21.51,10.7c-0.01,0-0.03,0.01-0.03,0c-0.46,0-0.91-0.01-1.34-0.02
			c-4.69-0.16-8.63-1.14-11.44-2.86c-2.79-1.7-4.32-4.04-4.32-6.57c0-5.87,7.38-8.94,14.67-8.94c3.61,0,11.17,2.06,23.79,6.47
			c4.84-3.55,10.24-7.85,15.39-11.97c-4.09-16.42-17.71-19.97-28.48-20.04c-0.02-0.02-0.04-0.02-0.06-0.02V95.91L386.06,95.91z
			 M488.35,147.73c0.04-1.19-0.36-2.23-1.2-3.1c-1.92-1.98-6.14-3.02-12.21-3.02c-6.18,0-13.68,2.9-22.14,6.52
			c11.7,4.05,18.74,5.95,22.09,5.95C486.85,154.07,488.29,149.64,488.35,147.73z M364.77,131.24c-0.18,1.84,0.32,3.42,1.47,4.69
			c2,2.19,5.99,3.35,11.55,3.37c0.01,0,0.01,0,0.02,0s0.02,0,0.03,0c0.01,0,0.02,0,0.03,0c4.39,0,10.66-3.11,20.26-10.04
			c-12.07-4.21-19.3-6.16-22.72-6.16C368.64,123.09,365.15,127.32,364.77,131.24z M415.56,122.23c-0.14-1.56-0.38-3.09-0.68-4.54
			c-4.82,3.86-9.85,7.85-14.42,11.22c3.95,1.4,8.53,3.06,14.28,5.2C415.66,130.48,415.94,126.39,415.56,122.23z M520.23,128.14
			v-0.54l0.02,0.54l0,0l0.01-0.54l0.03,0.54l0,0l0.01-0.54h0.01l-0.01,0.54c0,0,0,0,0.01,0v-0.54v0.01v-0.01l0.02,0.54l0,0l0-0.54
			h0.06c13.27,0,23.21-3.37,29.54-10.02c5.37-5.63,8.1-13.48,8.1-23.34c0-8.11-3.28-15.5-9.23-20.81
			c-7.09-6.33-17.92-9.67-31.3-9.67c-18.18,0-38.75,7.81-62.85,23.85c3.92,1.06,7.76,2.11,11.48,3.13c4.2,1.16,8.17,2.25,12.06,3.29
			c0.01,0,0.03,0.01,0.05,0.02h0.01c0.07,0.02,0.15,0.04,0.22,0.06c0.03,0.01,0.06,0.02,0.09,0.03c0.05,0.02,0.09,0.03,0.14,0.03
			c0.04,0.02,0.09,0.02,0.14,0.04c0.01,0,0.01,0,0.01,0c0.03,0.01,0.05,0.02,0.07,0.02c0,0,0.01,0,0.02,0
			c4.4,1.16,8.02,2.08,11.33,2.87c4.01-7.4,12.32-12.19,22.78-13.32c1.51-0.17,3.12-0.26,4.84-0.26c0,0,0.01,0,0.01,0
			c0.01,0,0.02,0,0.03,0h0.05l-0.03,0.54c0.01,0,0.01,0,0.03,0l0-0.54l0,0v0.54c0,0,0,0,0,0l0.01-0.54v0.02v-0.02v0.18l-0.01,0.37
			h0.01l0-0.54h0l0,0.54l0,0l0-0.54c1.27,0,2.39,0.1,3.39,0.3c5.51,0.96,10.32,4.19,10.32,9.03c0,4.16-4.27,9.04-16.29,9.07v-0.55
			l0,0v0.55h-0.01l0-0.55c0,0,0,0-0.01,0v0.55h-0.01l0.01-0.55h-0.01l0,0l0,0.55v-0.01v0.01v-0.21v-0.34h0v0.55h-0.01l0.01-0.55
			h-0.01l0,0l-0.01,0.55v-0.02v0.02v-0.2l0-0.35c0,0,0,0-0.01,0v0.55h-0.01l0.01-0.55c-0.01,0-0.01,0-0.01,0v0.55h-0.02l0.01-0.55
			c-0.01,0-0.01,0-0.01,0l0,0l0,0.55l0-0.21l0-0.34h0v0.01v-0.01v0.55h-0.02l0.01-0.55c-0.01,0-0.01,0-0.01,0c0,0,0.01,0,0.01,0
			l0.01-0.55v0.55h0l0-0.55v0.55c0,0,0.01,0,0.01,0l0.01-0.55v0.55c0,0,0,0,0.01,0v-0.55v0.55c0.01,0,0.01,0,0.01,0l0-0.55v0.55
			h0.01l0-0.55v0.55h0l0-0.55v0.55h0.01v-0.55v0.55c0,0,0,0,0,0l0.01-0.55l0.01,0.55l0,0l-0.01-0.55c5.28-0.01,8.91-1.01,10.81-2.99
			c1.22-1.27,1.75-2.97,1.67-5.2c-0.22-5.26-3.49-7.96-9.72-8.02h-0.01c-0.01,0-0.01,0-0.02,0c-0.01,0-0.01,0-0.03,0
			c-0.01-0.01-0.03,0-0.05,0c-0.01,0-0.01,0-0.02,0c-0.01-0.01-0.01,0-0.02,0c-0.01,0-0.03-0.01-0.03-0.01v-0.54l0,0l0,0.54v-0.01
			v0.01v-0.54h-0.01l0,0.54l0-0.54c0,0,0,0,0,0l0,0.54v-0.54c-0.01,0-0.02,0-0.03,0l-0.02,0.54c-0.01,0-0.02,0-0.04,0l0,0
			c-0.01,0-0.02,0-0.03,0c-0.02,0.01-0.02,0-0.03,0s-0.02,0-0.04,0.01c-0.01,0-0.02,0-0.03,0c-0.38,0-0.74,0.01-1.12,0.02
			c0,0-0.01,0-0.02,0c-11.53,0.33-19.59,5.01-22.85,13.28c9.02,1.99,15.87,2.91,21.53,2.91v0.55v0.55c-4.72,0-10.24-0.63-17.1-1.97
			c-1.53-0.3-3.13-0.63-4.81-1c-0.76,2.28-1.15,4.74-1.15,7.32c0,4.15,1.03,10.06,5.95,14.62c3.69,3.43,8.95,5.55,15.69,6.36
			c2.01,0.24,4.12,0.36,6.3,0.36h0c0.01,0,0.02,0,0.04,0L520.23,128.14L520.23,128.14l0-0.54h0V128.14L520.23,128.14z
			 M520.22,128.14L520.22,128.14l-0.01,0.54L520.22,128.14z"/>
		<polygon points="385.91,95.36 385.91,95.36 385.91,95.36 		"/>
		<path d="M317.14,85.6c0.09-0.04,0.19-0.08,0.28-0.12c17.2-7.39,35.81-10.98,56.9-10.98h0.01v1.09c-20.93,0-39.4,3.57-56.45,10.88
			c-0.02,0.01-0.05,0.02-0.07,0.04c-0.01,0-0.03,0.01-0.04,0.02c-0.04,0.01-0.07,0.03-0.1,0.04c-0.03,0.01-0.06,0.03-0.09,0.04
			l-0.08,0.03l-0.43-1L317.14,85.6z"/>
	</g>
</g>
<g>
	<g>
		<polygon points="214.93,95.13 214.93,95.13 214.93,95.13 		"/>
		<polygon points="214.92,95.13 214.92,95.13 214.92,95.13 		"/>
		<polygon points="214.82,95.13 214.82,95.13 214.82,95.13 		"/>
		<path d="M217.78,95.13c-0.01,0-2.66,0-2.68,0h-0.03l0.01,0.55c-0.01,0-0.01,0-0.02,0l0-0.55v0.25v0.3h-0.01l0-0.55h-0.02
			l0.01,0.55c-0.01,0-0.01,0-0.02,0l-0.01-0.55v0.02v-0.02l0,0.22l0.01,0.33c-0.01,0-0.01,0-0.01,0v-0.55h-0.02l0.01,0.55
			c0,0-0.01,0-0.01,0L215,95.13v0.02v-0.02v0.23l0,0.32c0,0-0.01,0-0.01,0l-0.01-0.54h-0.01l0.01,0.54c-0.01,0-0.01,0-0.01,0
			l-0.01-0.54v0.05v-0.05v0.14l0,0.4c0,0,0,0-0.01,0l0-0.54h-0.01l0.01,0.54c0,0,0,0-0.01,0l0-0.54h-0.02l0.01,0.54
			c0,0-0.01,0-0.01,0l-0.01-0.54h-0.01l0.01,0.54h-0.01l0-0.54h-0.02l0.02,0.54c-0.01,0-0.01,0-0.01,0l-0.01-0.54h-0.01l0.01,0.55
			c0,0,0,0-0.01,0v-0.55h-0.02l0.01,0.55c0,0-0.01,0-0.01,0l0-0.55h-0.03l0.02,0.55c-0.01,0-0.01,0-0.02,0l0-0.55h0l0.01,0.55
			c0,0,0,0,0,0l0-0.55h-0.02l0.01,0.55c-0.01,0-0.01,0-0.01,0l-0.01-0.55l0,0l0.01,0.55l0,0l-0.01-0.55c-0.01,0-0.02,0-0.03,0
			c-0.01,0-0.02,0-0.03,0c-0.01,0-0.02,0-0.03,0c-20.7,0.15-29.15,11.99-32.04,17.74l-0.01-0.01c-9.22-7.53-20.55-16.76-32.5-25.05
			c23.94-6.51,49.7-12.46,76.13-12.46v-1.02l0.01,1.02v-1.09h-0.01c0,0,0,0-0.01,0c-26.87,0-53.03,6.11-77.3,12.74
			c-24.14-16.53-44.73-24.57-62.96-24.57c-16.75,0-29.31,3.34-37.34,9.94c-6.49,5.33-9.92,12.81-9.92,21.64
			c0,10.06,3.21,18.13,9.54,23.98c7.51,6.95,19.25,10.47,34.88,10.47h0.06v-0.54l0,0.54v-0.55l0,0v0.01l0.02,0.54v-0.02l0.01,0.02
			l-0.01-0.55c0.01,0,0.01,0,0.01,0l0.01,0.55l0-0.55l0,0v0.01l0.03,0.54v-0.54l0.01,0.54v-0.55l0,0v0.01l0.02,0.54l0-0.55h0
			l0.01,0.55l0,0c2.5-0.01,4.78-0.16,6.86-0.44c10.29-1.33,18.18-5.67,22.16-12.35c3.27-5.49,3.57-11.95,0.85-17.8h0.01l0,0
			c3.33-0.81,7-1.76,11.48-2.98c0-0.01,0.01-0.01,0.01-0.01c0.03-0.01,0.07-0.02,0.11-0.03c0.37-0.1,0.75-0.2,1.12-0.31
			c0,0,0.01,0,0.01,0c0.01-0.01,0.02-0.01,0.03-0.01c0.01,0,0.01-0.01,0.01-0.01c0.01-0.01,0.02-0.01,0.03-0.01
			c3.44-0.94,6.94-1.92,10.63-2.95c2.12-0.6,4.27-1.21,6.46-1.81c1.88-0.53,3.77-1.05,5.68-1.57c12.28,8.45,23.95,17.97,33.39,25.68
			l0,0c-3.24,7.16-3.45,15.1-0.58,21.94l-0.01,0.01c-1.76,0.67-3.53,1.35-5.3,2.03c-8.67,3.31-17.64,6.75-25.4,9.52
			c-8.83-3.88-16.67-7.08-23.18-7.08c-12.81,0-18.55,3.62-18.55,7.21c0,3.59,5.82,7.44,18.6,7.44c3.52,0,10.86-2.03,23.1-6.4
			c0.93,0.42,1.89,0.84,2.85,1.27c15.26,6.76,34.25,15.19,56.97,15.19c14.03,0,25.82-3.91,34.08-11.31c7.33-6.56,14-15.35,14-24.75
			C258.76,112.66,245.94,95.14,217.78,95.13z M214.85,95.13l0.01,0.55h0L214.85,95.13z M214.8,95.68l0.01,0.53V96.2v0.01
			L214.8,95.68c0.01,0,0.01,0,0.01,0l0.02,0.53l0-0.53c0,0,0,0,0,0l0.01,0.53l-0.01-0.53c0.01,0,0.01,0,0.02,0l0.02,0.53l0-0.53h0
			l0.01,0.53l-0.01-0.53c0.01,0,0.01,0,0.01,0l0.02,0.53l0-0.53c0,0,0,0,0.01,0l0.01,0.53l0-0.53c0,0,0-0.01,0.01-0.01l0.01,0.54
			v-0.54h0.01l0.01,0.54l0-0.54c0,0,0.01,0,0.01,0l0.01,0.54v-0.54c0.01,0,0.01,0,0.01,0l0.01,0.54l-0.01-0.54c0.01,0,0.01,0,0.01,0
			l0.01,0.54l-0.01-0.54c0.01,0,0.01,0,0.01,0l0.02,0.54l0-0.54c0,0,0,0,0.01,0l0.01,0.54l0-0.54c0,0,0.01,0,0.01,0l0.01,0.54
			l0-0.54c0,0,0.01,0,0.01,0l0.01,0.54l-0.01-0.54c0.01,0,0.01,0,0.02,0l0.01,0.54v-0.54h0.01l0.01,0.54l0-0.54
			c0.01,0,0.01,0,0.02,0l0.01,0.54c0.01,0,0.02,0,0.04,0c11.1,0.02,20.2,3.43,26.29,9.89c5.71,6.04,8.65,14.54,8.3,23.94
			c-0.34,9.09-3.76,17.36-9.64,23.27c-6.89,6.92-17.06,10.59-29.42,10.59c-22.5,0-41.38-8.38-56.54-15.1
			c-0.61-0.26-1.2-0.53-1.79-0.79c7.52-2.71,16.06-5.97,24.34-9.14c1.8-0.68,3.59-1.37,5.38-2.06c4.35,9.24,13.77,14.53,25.93,14.54
			c0.01,0,0.02,0,0.03,0h2.64c1.78,0,2.41-1.03,2.41-1.91c0-1.06-0.84-1.91-1.87-1.91c-1.53,0-1.97,1.07-2.25,1.78
			c-0.29,0.71-0.42,0.94-0.93,0.94c-0.01,0-0.02,0-0.03,0c-10.67-0.01-18.11-5.44-20.99-15.32c6.01-2.28,10.71-4.02,14.75-5.47
			c9.93,7.39,16.44,10.7,21.08,10.7c0.01,0,0.03,0.01,0.03,0c0.45,0,0.89-0.01,1.31-0.02c4.59-0.16,8.45-1.14,11.2-2.86
			c2.73-1.7,4.24-4.04,4.24-6.57c0-5.87-7.23-8.94-14.38-8.94c-3.54,0-10.95,2.06-23.31,6.47c-4.74-3.55-10.04-7.85-15.08-11.97
			c4.01-16.42,17.36-19.97,27.91-20.04c0.02-0.02,0.04-0.02,0.05-0.02V95.68L214.8,95.68z M114.58,147.5
			c-0.04-1.19,0.35-2.23,1.17-3.1c1.88-1.98,6.01-3.02,11.96-3.02c6.05,0,13.41,2.9,21.69,6.52c-11.46,4.05-18.36,5.95-21.64,5.95
			C116.05,153.84,114.64,149.4,114.58,147.5z M235.66,131.01c0.17,1.84-0.32,3.42-1.44,4.69c-1.96,2.19-5.87,3.35-11.32,3.37
			c-0.01,0-0.01,0-0.02,0s-0.02,0-0.03,0c-0.01,0-0.02,0-0.03,0c-4.3,0-10.45-3.11-19.85-10.04c11.82-4.21,18.91-6.16,22.26-6.16
			C231.87,122.86,235.29,127.08,235.66,131.01z M185.9,121.99c0.14-1.56,0.37-3.09,0.67-4.54c4.73,3.86,9.65,7.85,14.12,11.22
			c-3.87,1.4-8.36,3.06-13.99,5.2C185.79,130.25,185.52,126.16,185.9,121.99z M83.34,127.91v-0.54l-0.02,0.54l0,0l-0.01-0.54
			l-0.03,0.54l0,0l-0.01-0.54h-0.01l0.01,0.54c0,0,0,0-0.01,0v-0.54v0.01v-0.01l-0.02,0.54l0,0l0-0.54H83.2
			c-13.01,0-22.75-3.37-28.95-10.02c-5.26-5.63-7.93-13.48-7.93-23.34c0-8.11,3.21-15.5,9.05-20.81c6.95-6.33,17.55-9.67,30.67-9.67
			c17.81,0,37.97,7.81,61.58,23.85c-3.84,1.06-7.6,2.11-11.25,3.13c-4.12,1.16-8.01,2.25-11.82,3.29c-0.01,0-0.03,0.01-0.05,0.02
			h-0.01c-0.07,0.02-0.14,0.04-0.21,0.06c-0.03,0.01-0.06,0.02-0.09,0.03c-0.05,0.02-0.09,0.03-0.14,0.03
			c-0.04,0.02-0.09,0.02-0.13,0.04c-0.01,0-0.01,0-0.01,0c-0.02,0.01-0.05,0.02-0.07,0.02c0,0-0.01,0-0.02,0
			c-4.31,1.16-7.86,2.08-11.1,2.87c-3.93-7.4-12.07-12.19-22.32-13.32c-1.48-0.17-3.06-0.26-4.75-0.26c0,0-0.01,0-0.01,0
			c-0.01,0-0.02,0-0.03,0h-0.05l0.02,0.54c-0.01,0-0.01,0-0.02,0l0-0.54l0,0v0.54c0,0,0,0,0,0l-0.01-0.54v0.02v-0.02v0.18l0.01,0.37
			h-0.01l0-0.54h0l0,0.54l0,0l0-0.54c-1.24,0-2.34,0.1-3.32,0.3c-5.4,0.96-10.12,4.19-10.12,9.03c0,4.16,4.18,9.04,15.97,9.07v-0.55
			l0,0v0.55h0.01l0-0.55c0,0,0,0,0.01,0v0.55h0.01l-0.01-0.55h0.01l0,0l0,0.55v-0.01v0.01v-0.21v-0.34h0v0.55h0.01l-0.01-0.55h0.01
			l0,0l0.01,0.55v-0.02v0.02v-0.2l0-0.35c0,0,0,0,0.01,0v0.55h0.01l-0.01-0.55c0.01,0,0.01,0,0.01,0v0.55h0.02l-0.01-0.55
			c0.01,0,0.01,0,0.01,0l0,0l0,0.55l0-0.21l0-0.34h0v0.01v-0.01v0.55h0.02l-0.01-0.55c0.01,0,0.01,0,0.01,0c0,0-0.01,0-0.01,0
			l-0.01-0.55v0.55h0l0-0.55v0.55c0,0-0.01,0-0.01,0l-0.01-0.55v0.55c0,0,0,0-0.01,0v-0.55v0.55c-0.01,0-0.01,0-0.01,0l0-0.55v0.55
			H88.1l0-0.55v0.55h0l0-0.55v0.55h-0.01v-0.55v0.55c0,0,0,0,0,0l-0.01-0.55l-0.01,0.55l0,0l0.01-0.55
			c-5.17-0.01-8.73-1.01-10.59-2.99c-1.19-1.27-1.72-2.97-1.63-5.2c0.21-5.26,3.42-7.96,9.52-8.02h0.01c0.01,0,0.01,0,0.02,0
			c0.01,0,0.01,0,0.03,0c0.01-0.01,0.03,0,0.05,0c0.01,0,0.01,0,0.02,0c0.01-0.01,0.01,0,0.02,0c0.01,0,0.02-0.01,0.03-0.01v-0.54
			l0,0l0,0.54v-0.01v0.01v-0.54h0.01l0,0.54l0-0.54c0,0,0,0,0,0l0,0.54v-0.54c0.01,0,0.02,0,0.02,0l0.02,0.54c0.01,0,0.02,0,0.03,0
			l0,0c0.01,0,0.02,0,0.03,0c0.02,0.01,0.02,0,0.03,0s0.02,0,0.03,0.01c0.01,0,0.02,0,0.03,0c0.37,0,0.73,0.01,1.09,0.02
			c0,0,0.01,0,0.02,0c11.29,0.33,19.19,5.01,22.39,13.28c-8.83,1.99-15.55,2.91-21.1,2.91v0.55v0.55c4.62,0,10.03-0.63,16.76-1.97
			c1.5-0.3,3.07-0.63,4.71-1c0.75,2.28,1.13,4.74,1.13,7.32c0,4.15-1.01,10.06-5.83,14.62c-3.62,3.43-8.77,5.55-15.37,6.36
			c-1.97,0.24-4.03,0.36-6.18,0.36h0c-0.01,0-0.02,0-0.04,0L83.34,127.91L83.34,127.91l0-0.54h0V127.91L83.34,127.91z M83.35,127.91
			L83.35,127.91l0.01,0.54L83.35,127.91z"/>
		<polygon points="214.95,95.13 214.95,95.13 214.95,95.13 		"/>
		<path d="M282.33,85.37c-0.09-0.04-0.18-0.08-0.28-0.12c-16.85-7.39-35.09-10.98-55.75-10.98h-0.01v1.09
			c20.51,0,38.6,3.57,55.31,10.88c0.02,0.01,0.05,0.02,0.07,0.04c0.01,0,0.03,0.01,0.03,0.02c0.04,0.01,0.06,0.03,0.1,0.04
			c0.03,0.01,0.06,0.03,0.09,0.04l0.07,0.03l0.42-1L282.33,85.37z"/>
	</g>
</g>
<path d="M250.94,90.82l-25.49,0.26c-1.72,0-3.18-0.6-2.83-3.26c1.03-8.15,17.83-37.68,19.46-51.67l18.05,10.34
	c-2.58,14.51-33.39,29.91-36.31,40.73c-0.6,2.15,0,2.92,1.89,2.92c8.15,0,15.71-0.95,23.52-3.01l0.18-22.94
	c1.98-1.24,9.34-7.59,10.98-12.14l-0.86,32c2.49-1.2,4.63-2.58,6.27-4.21c0.51-0.51,0.94-0.09,0.77,0.26
	c-0.05,3.43,5.82,7.93,6.16,10.68l-13.2-0.03v14.08c0,2.75,4.55,7.35,7.3,8.12c0.26,0.09,0.43,0.17,0.43,0.43
	c0,0.26-0.17,0.43-0.43,0.43c-4.46-0.43-8.07-0.69-11.59-0.69c-3.52,0-7.04,0.26-11.59,0.69c-0.26,0-0.43-0.17-0.43-0.43
	c0-0.26,0.17-0.34,0.43-0.43c2.75-0.77,7.3-5.38,7.3-8.12V90.82z"/>
<path d="M346,90.97l-25.49,0.26c-1.72,0-3.18-0.6-2.83-3.26c1.03-8.15,17.83-37.68,19.46-51.67l18.05,10.34
	c-2.58,14.51-33.39,29.91-36.31,40.73c-0.6,2.15,0,2.92,1.89,2.92c8.15,0,15.71-0.95,23.52-3.01l0.18-22.94
	c1.98-1.24,9.34-7.59,10.98-12.14l-0.86,32c2.49-1.2,4.63-2.58,6.27-4.21c0.51-0.51,0.94-0.09,0.77,0.26
	c-0.05,3.43,5.82,7.93,6.16,10.68l-13.2-0.03v14.08c0,2.75,4.55,7.35,7.3,8.12c0.26,0.09,0.43,0.17,0.43,0.43s-0.17,0.43-0.43,0.43
	c-4.46-0.43-8.07-0.69-11.59-0.69c-3.52,0-7.04,0.26-11.59,0.69c-0.26,0-0.43-0.17-0.43-0.43s0.17-0.34,0.43-0.43
	c2.75-0.77,7.3-5.38,7.3-8.12V90.97z"/>
<path d="M319.31,80.38c0,17.25-6.82,31.37-24.15,31.37c-17.33,0-24.15-14.21-24.15-31.46c0-17.16,6.73-31.2,24.05-31.2
	C312.49,49.1,319.31,63.14,319.31,80.38z M305.96,79.69c0-10.05-0.01-29.73-10.61-29.73c-10.6,0-9.42,20.28-9.42,30.33
	c0,9.79-1.18,30.59,9.14,30.59C305.77,110.89,305.96,89.74,305.96,79.69z"/>
</svg>
