<?xml version="1.0" encoding="UTF-8" standalone="no"?>
<!-- Created with Inkscape (http://www.inkscape.org/) -->

<svg
   xmlns:dc="http://purl.org/dc/elements/1.1/"
   xmlns:cc="http://creativecommons.org/ns#"
   xmlns:rdf="http://www.w3.org/1999/02/22-rdf-syntax-ns#"
   xmlns:svg="http://www.w3.org/2000/svg"
   xmlns="http://www.w3.org/2000/svg"
   xmlns:sodipodi="http://sodipodi.sourceforge.net/DTD/sodipodi-0.dtd"
   xmlns:inkscape="http://www.inkscape.org/namespaces/inkscape"
   width="400"
   height="400"
   viewBox="0 0 105.83333 105.83333"
   version="1.1"
   id="svg3836"
   inkscape:version="0.92.3 (2405546, 2018-03-11)"
   sodipodi:docname="xemantic-avatar.svg"
   inkscape:export-filename="/home/morisil/git/___fix_and_delete/xemantic.com/logo/xemantic-avatar.png"
   inkscape:export-xdpi="96"
   inkscape:export-ydpi="96">
  <defs
     id="defs3830" />
  <sodipodi:namedview
     id="base"
     pagecolor="#ffffff"
     bordercolor="#666666"
     borderopacity="1.0"
     inkscape:pageopacity="0"
     inkscape:pageshadow="2"
     inkscape:zoom="0.5"
     inkscape:cx="3.051063"
     inkscape:cy="100.30129"
     inkscape:document-units="px"
     inkscape:current-layer="layer1"
     showgrid="false"
     units="px"
     inkscape:window-width="1920"
     inkscape:window-height="1016"
     inkscape:window-x="0"
     inkscape:window-y="27"
     inkscape:window-maximized="1" />
  <metadata
     id="metadata3833">
    <rdf:RDF>
      <cc:Work
         rdf:about="">
        <dc:format>image/svg+xml</dc:format>
        <dc:type
           rdf:resource="http://purl.org/dc/dcmitype/StillImage" />
        <dc:title></dc:title>
      </cc:Work>
    </rdf:RDF>
  </metadata>
  <g
     inkscape:label="Layer 1"
     inkscape:groupmode="layer"
     id="layer1"
     transform="translate(0,-191.16667)">
    <rect
       style="fill:#9661a8;fill-opacity:0;stroke-width:0.32170704"
       id="rect3972"
       width="114.56458"
       height="109.27292"
       x="-3.4395833"
       y="187.72708"
       inkscape:export-xdpi="96"
       inkscape:export-ydpi="96" />
    <rect
       style="fill:#9661a8;fill-opacity:1;stroke-width:0.26794013"
       id="rect4779"
       width="105.83333"
       height="105.83333"
       x="6.9388939e-18"
       y="191.16667" />
    <g
       transform="matrix(0.11152182,0,0,0.11152182,-5.8330298,226.37367)"
       id="g3887"
       style="fill:#ffffff">
      <path
         inkscape:connector-curvature="0"
         id="path3840"
         d="m 903.8,217.3 c -32.8,0 -51.1,-24.1 -51.1,-55.4 0,-31.3 18.3,-55.4 51.1,-55.4 24.3,0 41.5,14.3 43.7,37.3 h -20.2 c -1.9,-11.7 -10.4,-20.2 -22.4,-20.2 h -2.1 c -20.2,0 -29.8,18.1 -29.8,38.4 0,20.3 9.6,38.4 29.8,38.4 h 2.1 c 11.9,0 20.5,-8.5 22.4,-20.2 h 20.2 c -2.1,22.9 -19.4,37.1 -43.7,37.1 z"
         class="st0"
         style="fill:#ffffff" />
      <rect
         id="rect3842"
         height="119.3"
         width="20.200001"
         class="st0"
         y="95.900002"
         x="814.40002"
         style="fill:#ffffff" />
      <path
         inkscape:connector-curvature="0"
         id="path3844"
         d="M 753,177.3 V 126.2 H 729.6 V 108.7 H 753 V 74.2 h 20.2 v 34.5 h 25.6 v 17.5 h -25.6 v 47.9 46.9 c 0,14.9 -7.5,22.4 -22.4,22.4 h -16 v -18.1 h 9.6 c 6.4,0 8.5,-2.1 8.5,-8.5 v -39.5 z"
         class="st0"
         style="fill:#ffffff" />
      <path
         inkscape:connector-curvature="0"
         id="path3846"
         d="m 644.3,155.6 v 59.7 H 624.1 V 95.9 h 20.2 v 27.7 c 6.4,-9.6 17,-17 34.1,-17 24.5,0 38.4,14.9 38.4,37.3 v 71.4 h -20.2 v -67.1 c 0,-14.9 -6.4,-24.5 -21.3,-24.5 h -2.1 c -15,-0.1 -28.9,11.6 -28.9,31.9 z"
         class="st0"
         style="fill:#ffffff" />
      <path
         inkscape:connector-curvature="0"
         id="path3848"
         d="m 413.9,172.6 v 20.2 c 0,14.9 -7.5,22.4 -22.4,22.4 h -16 v -18.1 h 9.6 c 6.4,0 8.5,-2.1 8.5,-8.5 v -16 -24.5 c 0,-14.9 -6.4,-24.5 -21.3,-24.5 h -2.1 c -12.8,0 -26.6,11.7 -26.6,32 v 74.6 H 323.4 V 108.7 h 20.2 v 14.9 c 6.4,-9.6 17,-17 32,-17 15.3,0 28.1,6 35.2,19.8 8.3,-14.7 22.2,-19.8 35.2,-19.8 24.5,0 38.4,14.9 38.4,37.3 v 71.4 H 464 v -67.1 c 0,-14.9 -6.4,-24.5 -21.3,-24.5 h -2.1 c -12.8,0 -26.6,11.7 -26.6,32 v 16.9 z"
         class="st0"
         style="fill:#ffffff" />
      <path
         inkscape:connector-curvature="0"
         id="path3850"
         d="m 259.6,106.6 c -25.1,0 -49.6,18.3 -49.6,55.2 0,37.3 23.9,55.6 50.3,55.6 22.2,0 40.9,-11.7 44.3,-33.7 h -20.2 c -2.1,11.3 -12.1,16.6 -22.8,16.6 h -1.3 c -13.2,0 -28.8,-10.9 -30,-35.2 43,0 68,0 74.9,0 2,-38.6 -15.7,-58.5 -45.6,-58.5 z m -28.1,42.6 c 3.8,-19 16.2,-25.6 27.1,-25.6 h 2.1 c 11.9,0 22.8,6.8 24.7,25.6 z"
         class="st0"
         style="fill:#ffffff" />
      <polygon
         id="polygon3852"
         points="169,161.1 208.4,215.2 184.7,215.2 157,177.1 129.1,215.2 106.1,215.2 145.5,161.5 107.2,108.7 130.8,108.7 157.5,145.3 184.3,108.7 207.3,108.7 "
         class="st0"
         style="fill:#ffffff" />
      <path
         inkscape:connector-curvature="0"
         id="path3854"
         d="m 581.8,108.7 v 14.9 c -6.4,-9.6 -16,-17 -34.1,-17 -26.6,0 -46.9,20.2 -46.9,55.4 0,35.2 20.2,55.4 46.9,55.4 18.1,0 27.7,-7.5 34.1,-17 v 29.8 H 602 V 108.7 Z M 552,200.3 h -2.1 c -16,0 -28.8,-12.8 -28.8,-38.4 0,-25.6 12.8,-38.4 28.8,-38.4 h 2.1 c 14.9,0 29.8,12.8 29.8,38.4 0,25.6 -14.9,38.4 -29.8,38.4 z"
         class="st0"
         style="fill:#ffffff" />
    </g>
  </g>
</svg>
