<?xml version="1.0" encoding="utf-8"?>
<svg version="1.1" id="Layer_1" xmlns="http://www.w3.org/2000/svg" xmlns:xlink="http://www.w3.org/1999/xlink" x="0px" y="0px"
	 viewBox="0 0 1052.5 321.7" style="enable-background:new 0 0 1052.5 321.7;" xml:space="preserve">
<style type="text/css">
	.st0{fill-rule:evenodd;clip-rule:evenodd;fill:#FFFFFF;}
</style>
<path class="st0" d="M903.8,217.3c-32.8,0-51.1-24.1-51.1-55.4s18.3-55.4,51.1-55.4c24.3,0,41.5,14.3,43.7,37.3h-20.2
	c-1.9-11.7-10.4-20.2-22.4-20.2h-2.1c-20.2,0-29.8,18.1-29.8,38.4s9.6,38.4,29.8,38.4h2.1c11.9,0,20.5-8.5,22.4-20.2h20.2
	C945.4,203.1,928.1,217.3,903.8,217.3z"/>
<rect x="814.4" y="95.9" class="st0" width="20.2" height="119.3"/>
<path class="st0" d="M753,177.3v-51.1h-23.4v-17.5H753V74.2h20.2v34.5h25.6v17.5h-25.6v47.9V221c0,14.9-7.5,22.4-22.4,22.4h-16
	v-18.1h9.6c6.4,0,8.5-2.1,8.5-8.5V177.3z"/>
<path class="st0" d="M644.3,155.6v59.7h-20.2V95.9h20.2v27.7c6.4-9.6,17-17,34.1-17c24.5,0,38.4,14.9,38.4,37.3v71.4h-20.2v-67.1
	c0-14.9-6.4-24.5-21.3-24.5h-2.1C658.2,123.6,644.3,135.3,644.3,155.6z"/>
<path class="st0" d="M413.9,172.6v20.2c0,14.9-7.5,22.4-22.4,22.4h-16v-18.1h9.6c6.4,0,8.5-2.1,8.5-8.5v-16v-24.5
	c0-14.9-6.4-24.5-21.3-24.5h-2.1c-12.8,0-26.6,11.7-26.6,32v74.6h-20.2V108.7h20.2v14.9c6.4-9.6,17-17,32-17
	c15.3,0,28.1,6,35.2,19.8c8.3-14.7,22.2-19.8,35.2-19.8c24.5,0,38.4,14.9,38.4,37.3v71.4H464v-67.1c0-14.9-6.4-24.5-21.3-24.5h-2.1
	c-12.8,0-26.6,11.7-26.6,32V172.6z"/>
<path class="st0" d="M259.6,106.6c-25.1,0-49.6,18.3-49.6,55.2c0,37.3,23.9,55.6,50.3,55.6c22.2,0,40.9-11.7,44.3-33.7h-20.2
	c-2.1,11.3-12.1,16.6-22.8,16.6h-1.3c-13.2,0-28.8-10.9-30-35.2c43,0,68,0,74.9,0C307.2,126.5,289.5,106.6,259.6,106.6z
	 M231.5,149.2c3.8-19,16.2-25.6,27.1-25.6h2.1c11.9,0,22.8,6.8,24.7,25.6H231.5z"/>
<polygon class="st0" points="184.7,215.2 157,177.1 129.1,215.2 106.1,215.2 145.5,161.5 107.2,108.7 130.8,108.7 157.5,145.3 
	184.3,108.7 207.3,108.7 169,161.1 208.4,215.2 "/>
<path class="st0" d="M581.8,108.7v14.9c-6.4-9.6-16-17-34.1-17c-26.6,0-46.9,20.2-46.9,55.4s20.2,55.4,46.9,55.4
	c18.1,0,27.7-7.5,34.1-17v29.8H602V108.7H581.8z M552,200.3h-2.1c-16,0-28.8-12.8-28.8-38.4c0-25.6,12.8-38.4,28.8-38.4h2.1
	c14.9,0,29.8,12.8,29.8,38.4C581.8,187.5,566.9,200.3,552,200.3z"/>
</svg>
