<?xml version="1.0" encoding="UTF-8" standalone="no"?>
<svg
   xmlns:dc="http://purl.org/dc/elements/1.1/"
   xmlns:cc="http://creativecommons.org/ns#"
   xmlns:rdf="http://www.w3.org/1999/02/22-rdf-syntax-ns#"
   xmlns:svg="http://www.w3.org/2000/svg"
   xmlns="http://www.w3.org/2000/svg"
   xmlns:sodipodi="http://sodipodi.sourceforge.net/DTD/sodipodi-0.dtd"
   xmlns:inkscape="http://www.inkscape.org/namespaces/inkscape"
   version="1.1"
   id="Layer_1"
   x="0px"
   y="0px"
   viewBox="0 0 16 15.999999"
   xml:space="preserve"
   sodipodi:docname="xemantic-favicon.svg"
   width="16"
   height="16"
   inkscape:version="0.92.3 (2405546, 2018-03-11)"><metadata
   id="metadata102"><rdf:RDF><cc:Work
       rdf:about=""><dc:format>image/svg+xml</dc:format><dc:type
         rdf:resource="http://purl.org/dc/dcmitype/StillImage" /><dc:title></dc:title></cc:Work></rdf:RDF></metadata><defs
   id="defs100" /><sodipodi:namedview
   pagecolor="#ffffff"
   bordercolor="#666666"
   borderopacity="1"
   objecttolerance="10"
   gridtolerance="10"
   guidetolerance="10"
   inkscape:pageopacity="0"
   inkscape:pageshadow="2"
   inkscape:window-width="1920"
   inkscape:window-height="1016"
   id="namedview98"
   showgrid="false"
   inkscape:zoom="20.249578"
   inkscape:cx="8.0858474"
   inkscape:cy="7.2520029"
   inkscape:window-x="0"
   inkscape:window-y="27"
   inkscape:window-maximized="1"
   inkscape:current-layer="Layer_1" />
<style
   type="text/css"
   id="style79">
	.st0{fill-rule:evenodd;clip-rule:evenodd;fill:#FFFFFF;}
</style>






<rect
   style="fill:#9661a8;fill-opacity:1;stroke-width:0.04050748"
   id="rect4779"
   width="16"
   height="16"
   x="0"
   y="0" /><g
   id="g125"
   transform="matrix(0.06814115,0,0,0.06814115,-6.0184498,-3.0388663)"><path
     id="path91"
     d="m 259.6,106.6 c -25.1,0 -49.6,18.3 -49.6,55.2 0,37.3 23.9,55.6 50.3,55.6 22.2,0 40.9,-11.7 44.3,-33.7 h -20.2 c -2.1,11.3 -12.1,16.6 -22.8,16.6 h -1.3 c -13.2,0 -28.8,-10.9 -30,-35.2 43,0 68,0 74.9,0 2,-38.6 -15.7,-58.5 -45.6,-58.5 z m -28.1,42.6 c 3.8,-19 16.2,-25.6 27.1,-25.6 h 2.1 c 11.9,0 22.8,6.8 24.7,25.6 z"
     class="st0"
     inkscape:connector-curvature="0"
     style="clip-rule:evenodd;fill:#ffffff;fill-rule:evenodd" /><polygon
     id="polygon93"
     points="129.1,215.2 106.1,215.2 145.5,161.5 107.2,108.7 130.8,108.7 157.5,145.3 184.3,108.7 207.3,108.7 169,161.1 208.4,215.2 184.7,215.2 157,177.1 "
     class="st0"
     style="clip-rule:evenodd;fill:#ffffff;fill-rule:evenodd" /></g>

</svg>