<?xml version="1.0" encoding="UTF-8"?>
<svg version="1.1" viewBox="0 0 1052.5 211.99999" xml:space="preserve" xmlns="http://www.w3.org/2000/svg" xmlns:cc="http://creativecommons.org/ns#" xmlns:dc="http://purl.org/dc/elements/1.1/" xmlns:rdf="http://www.w3.org/1999/02/22-rdf-syntax-ns#"><metadata><rdf:RDF><cc:Work rdf:about=""><dc:format>image/svg+xml</dc:format><dc:type rdf:resource="http://purl.org/dc/dcmitype/StillImage"/><dc:title/></cc:Work></rdf:RDF></metadata>
	<style type="text/css">
	.st0{fill-rule:evenodd;clip-rule:evenodd;fill:#ffffff;}
</style>
	<g transform="matrix(1.2506 0 0 1.2506 -132.66 -92.668)" clip-rule="evenodd" fill="#5d5e5f" fill-rule="evenodd"><path class="st0" d="m903.8 217.3c-32.8 0-51.1-24.1-51.1-55.4s18.3-55.4 51.1-55.4c24.3 0 41.5 14.3 43.7 37.3h-20.2c-1.9-11.7-10.4-20.2-22.4-20.2h-2.1c-20.2 0-29.8 18.1-29.8 38.4s9.6 38.4 29.8 38.4h2.1c11.9 0 20.5-8.5 22.4-20.2h20.2c-2.1 22.9-19.4 37.1-43.7 37.1z"/><rect class="st0" x="814.4" y="95.9" width="20.2" height="119.3"/><path class="st0" d="m753 177.3v-51.1h-23.4v-17.5h23.4v-34.5h20.2v34.5h25.6v17.5h-25.6v94.8c0 14.9-7.5 22.4-22.4 22.4h-16v-18.1h9.6c6.4 0 8.5-2.1 8.5-8.5v-39.5z"/><path class="st0" d="m644.3 155.6v59.7h-20.2v-119.4h20.2v27.7c6.4-9.6 17-17 34.1-17 24.5 0 38.4 14.9 38.4 37.3v71.4h-20.2v-67.1c0-14.9-6.4-24.5-21.3-24.5h-2.1c-15-0.1-28.9 11.6-28.9 31.9z"/><path class="st0" d="m413.9 172.6v20.2c0 14.9-7.5 22.4-22.4 22.4h-16v-18.1h9.6c6.4 0 8.5-2.1 8.5-8.5v-40.5c0-14.9-6.4-24.5-21.3-24.5h-2.1c-12.8 0-26.6 11.7-26.6 32v74.6h-20.2v-121.5h20.2v14.9c6.4-9.6 17-17 32-17 15.3 0 28.1 6 35.2 19.8 8.3-14.7 22.2-19.8 35.2-19.8 24.5 0 38.4 14.9 38.4 37.3v71.4h-20.4v-67.1c0-14.9-6.4-24.5-21.3-24.5h-2.1c-12.8 0-26.6 11.7-26.6 32v16.9z"/><path class="st0" d="m259.6 106.6c-25.1 0-49.6 18.3-49.6 55.2 0 37.3 23.9 55.6 50.3 55.6 22.2 0 40.9-11.7 44.3-33.7h-20.2c-2.1 11.3-12.1 16.6-22.8 16.6h-1.3c-13.2 0-28.8-10.9-30-35.2h74.9c2-38.6-15.7-58.5-45.6-58.5zm-28.1 42.6c3.8-19 16.2-25.6 27.1-25.6h2.1c11.9 0 22.8 6.8 24.7 25.6z"/><polygon class="st0" points="145.5 161.5 107.2 108.7 130.8 108.7 157.5 145.3 184.3 108.7 207.3 108.7 169 161.1 208.4 215.2 184.7 215.2 157 177.1 129.1 215.2 106.1 215.2"/><path class="st0" d="m581.8 108.7v14.9c-6.4-9.6-16-17-34.1-17-26.6 0-46.9 20.2-46.9 55.4s20.2 55.4 46.9 55.4c18.1 0 27.7-7.5 34.1-17v29.8h20.2v-121.5zm-29.8 91.6h-2.1c-16 0-28.8-12.8-28.8-38.4s12.8-38.4 28.8-38.4h2.1c14.9 0 29.8 12.8 29.8 38.4s-14.9 38.4-29.8 38.4z"/></g>
</svg>
