<svg class="logo" xmlns="http://www.w3.org/2000/svg" viewBox="0 0 100.00371 18.35874"><path fill="#fff" d="M111.76521 27.543993c-.38686 0-.73074.138889-.99736.40566-.2653.265301-.40566.600468-.40566.973068 0 .386659.13926.727912.40721.987019.26705.258234.61012.39119.99581.39119.39995 0 .75072-.131855 1.01906-.39119.26781-.258971.40721-.600202.40721-.987019 0-.373868-.14551-.710284-.4191-.975136-.27409-.265335-.62043-.403592-1.00717-.403592zm-7.43676.0021v3.809589h-2.73058v1.848466h2.73058v8.42791c0 .721235-.18454 1.261205-.54312 1.648995-.35939.38882-.83666.5824-1.47226.5824-.17714 0-.35585-.0204-.5364-.0568l-.19069-.0387v2.05258l.13281.0222c.23674.04.47464.06.71365.06 1.22601 0 2.22319-.3601 2.95641-1.08521.73592-.72736 1.09864-1.76161 1.09864-3.065446v-8.547799h2.55747v-1.848466h-2.55747v-3.809586zm-15.352026 2.1885v13.72371h2.13527v-5.823934c0-1.471814.35788-2.590827 1.05936-3.383773.70294-.794603 1.64421-1.189075 2.86805-1.189075.93504 0 1.67024.317138 2.2474.962732.57697.645241.86817 1.488445.86817 2.5585v6.87555h2.135266V36.24789c0-1.528655-.448236-2.786464-1.346166-3.74189-.89813-.95564-2.09322-1.436605-3.54604-1.436605-1.82266 0-3.2639.654545-4.28604 1.932698v-3.2675zm-4.3956.000526v3.235969c-1.10999-1.258954-2.62913-1.901693-4.52531-1.901693-1.64734 0-3.07777.598474-4.25917 1.779736-1.18478 1.184782-1.77922 2.720081-1.77922 4.570264s.59444 3.385482 1.77922 4.570264c1.1814 1.181404 2.61184 1.779744 4.25917 1.779744 1.89625 0 3.41533-.64305 4.52531-1.902217v3.677297h2.13527V29.735074Zm-30.962452.05064v15.790234h2.135787v-8.300261c0-1.345287.31505-2.375304.930693-3.112471.616694-.738576 1.43243-1.101742 2.494421-1.101742.842207 0 1.513916.264898 2.05052.801502.534981.534732.802019 1.230269.802019 2.121834v7.473438h2.135271v-6.182561c0-1.344966.318919-2.37467.94206-3.111954.624772-.738983 1.445281-1.102259 2.507341-1.102259.85859 0 1.53822.265429 2.07429.801502.53487.534741.8015 1.230284.8015 2.121834v7.473438h2.13527V35.67428c0-1.356078-.43526-2.477853-1.30224-3.328479-.86508-.848489-1.9611-1.276408-3.25458-1.276408-1.924669 0-3.416839.764499-4.430224 2.251025-.360807-.663959-.865269-1.203499-1.522906-1.595251-.734856-.43759-1.574934-.655774-2.507857-.655774-1.643389 0-2.941992.592519-3.855578 1.750281V29.78575Zm67.783458 1.283643c-1.74092 0-3.23892.596239-4.46123 1.777669-1.22496 1.184262-1.84071 2.720865-1.84071 4.572331 0 1.867071.61571 3.407504 1.84123 4.584216 1.22239 1.173445 2.72004 1.765785 4.46071 1.765785 1.35106 0 2.56534-.36439 3.62717-1.09141 1.06357-.727988 1.76805-1.709038 2.09599-2.922299l.0413-.153996-1.97455-.535885-.046.145728c-.26127.830005-.7253 1.451293-1.40353 1.885673-.6831.43742-1.45867.655774-2.34042.655774-1.20727 0-2.19846-.39566-3.00705-1.19631-.80591-.798308-1.20768-1.832141-1.20768-3.137276 0-1.28862.40544-2.322638 1.22059-3.137793.81716-.817153 1.80389-1.22008 2.99414-1.22008.87985 0 1.64873.233174 2.32337.700732.67156.465506 1.1257 1.110136 1.37201 1.95647l.045.154512 2.05-.617533-.0444-.151929c-.36004-1.227602-1.07927-2.214465-2.1425-2.942456-1.06153-.726817-2.26803-1.091923-3.6034-1.091923zm-75.165436.000513c-1.709776 0-3.191356.596068-4.413168 1.777152-1.225223 1.184508-1.841231 2.729027-1.841231 4.596097 0 1.851006.607776 3.383255 1.816944 4.559929 1.205387 1.17259 2.654808 1.76578 4.317565 1.76578 1.364149 0 2.557865-.33054 3.565674-.99426 1.008473-.66424 1.75201-1.623687 2.224154-2.860799l.06511-.170015-1.931665-.454753-.05374.120923c-.728301 1.64264-1.988106 2.439128-3.869532 2.439128-1.029062 0-1.932079-.367247-2.73575-1.116728-.760055-.708919-1.180499-1.637013-1.28726-2.795695h10.08569v-.834057c-.06494-1.76895-.65896-3.228829-1.77922-4.349089-1.119168-1.119169-2.518335-1.683618-4.16357-1.683618zm-19.042249.286282 4.612122 6.133993-4.617806 5.968623h2.602425l3.554305-4.607466 3.554822 4.607466h2.602425l-4.618323-5.968623 4.612638-6.133993h-2.597774l-3.553788 4.745447-3.553271-4.745447zm83.502905.001v12.102106h2.15956V31.357197Zm-64.460656 1.63297c.970487 0 1.795369.29895 2.501139.904854.660254.567211 1.069267 1.352123 1.245402 2.36058h-7.79849c.194549-.973823.647997-1.748655 1.390096-2.332158.795265-.625406 1.675676-.933276 2.661853-.933276zm34.10644 0c1.12433 0 2.10145.405198 2.96055 1.233516.85399.823015 1.27744 1.875975 1.27744 3.195671 0 1.303241-.42305 2.347727-1.27744 3.171383-.85913.82834-1.83627 1.234033-2.96055 1.234033-1.20701 0-2.20231-.399197-3.01893-1.208195-.81364-.805913-1.21957-1.859694-1.21957-3.197221s.40602-2.395684 1.22009-3.209623c.81675-.816878 1.81173-1.219564 3.01841-1.219564z" transform="translate(-27.188461 -27.543993)"/></svg>